<svg width="24" height="24" viewBox="0 0 24 24" fill="none" xmlns="http://www.w3.org/2000/svg">
<path d="M0.0728671 10.5107L9.32796 10.5107V13.9184L0.05562 13.9184C0.0556239 13.2705 -0.0728814 11.2787 0.0728671 10.5107Z" fill="#020617"/>
<path d="M23.9441 10.7507L14.6235 10.7507L14.6235 14.1584L23.7814 14.1584C23.9771 13.5344 24.0419 11.3027 23.9441 10.7507Z" fill="#020617"/>
<path fill-rule="evenodd" clip-rule="evenodd" d="M11.9029 16.9901C14.7202 16.9901 17.0041 14.7339 17.0041 11.9506C17.0041 9.16739 14.7202 6.91113 11.9029 6.91113C9.08553 6.91113 6.80164 9.16739 6.80164 11.9506C6.80164 14.7339 9.08553 16.9901 11.9029 16.9901ZM11.9029 14.3503C13.2444 14.3503 14.332 13.2759 14.332 11.9505C14.332 10.6252 13.2444 9.55078 11.9029 9.55078C10.5613 9.55078 9.47371 10.6252 9.47371 11.9505C9.47371 13.2759 10.5613 14.3503 11.9029 14.3503Z" fill="#020617"/>
<rect x="6.99597" y="23.999" width="3.49798" height="3.45565" transform="rotate(180 6.99597 23.999)" fill="#020617"/>
<rect x="3.49805" y="23.999" width="3.49798" height="3.45565" transform="rotate(180 3.49805 23.999)" fill="#020617"/>
<rect x="3.49805" y="20.5913" width="3.49798" height="3.45565" transform="rotate(180 3.49805 20.5913)" fill="#020617"/>
<rect x="17.004" y="0.0969238" width="3.49798" height="3.45565" fill="#DB2777"/>
<rect x="20.5021" y="0.0969238" width="3.49798" height="3.45565" fill="#DB2777"/>
<rect x="20.5021" y="3.55273" width="3.49798" height="3.45565" fill="#DB2777"/>
<path d="M6.39831e-05 11.7588C6.41197e-05 10.2146 0.307941 8.68551 0.906116 7.25887C1.50429 5.83223 2.38105 4.53595 3.48633 3.44404C4.59162 2.35213 5.90378 1.48599 7.3479 0.895052C8.79202 0.304116 10.3398 -3.35879e-05 11.9029 -3.34529e-05L11.9029 3.5147C10.807 3.5147 9.72188 3.72794 8.70941 4.14224C7.69694 4.55654 6.77698 5.1638 6.00207 5.92933C5.22716 6.69486 4.61246 7.60368 4.19309 8.6039C3.77371 9.60412 3.55785 10.6761 3.55785 11.7588L6.39831e-05 11.7588Z" fill="#020617"/>
<path d="M23.9515 12.2412C23.9515 13.7854 23.6436 15.3145 23.0454 16.7411C22.4472 18.1678 21.5705 19.4641 20.4652 20.556C19.3599 21.6479 18.0478 22.514 16.6036 23.1049C15.1595 23.6959 13.6117 24 12.0486 24L12.0486 20.4853C13.1445 20.4853 14.2297 20.2721 15.2421 19.8578C16.2546 19.4435 17.1746 18.8362 17.9495 18.0707C18.7244 17.3051 19.3391 16.3963 19.7585 15.3961C20.1778 14.3959 20.3937 13.3239 20.3937 12.2412L23.9515 12.2412Z" fill="#020617"/>
</svg>
