<svg width="211" height="56" viewBox="0 0 211 56" fill="none" xmlns="http://www.w3.org/2000/svg">
<path d="M58.1824 36.36C57.2224 36.36 56.3104 36.24 55.4464 36C54.6064 35.736 53.8264 35.376 53.1064 34.92C52.3864 34.44 51.7624 33.876 51.2344 33.228L53.3224 31.14C53.9464 31.908 54.6664 32.484 55.4824 32.868C56.2984 33.228 57.2104 33.408 58.2184 33.408C59.2264 33.408 60.0064 33.24 60.5584 32.904C61.1104 32.544 61.3864 32.052 61.3864 31.428C61.3864 30.804 61.1584 30.324 60.7024 29.988C60.2704 29.628 59.7064 29.34 59.0104 29.124C58.3144 28.884 57.5704 28.656 56.7784 28.44C56.0104 28.2 55.2784 27.9 54.5824 27.54C53.8864 27.18 53.3104 26.688 52.8544 26.064C52.4224 25.44 52.2064 24.612 52.2064 23.58C52.2064 22.548 52.4584 21.66 52.9624 20.916C53.4664 20.148 54.1624 19.56 55.0504 19.152C55.9624 18.744 57.0544 18.54 58.3264 18.54C59.6704 18.54 60.8584 18.78 61.8904 19.26C62.9464 19.716 63.8104 20.412 64.4824 21.348L62.3944 23.436C61.9144 22.812 61.3144 22.332 60.5944 21.996C59.8984 21.66 59.1064 21.492 58.2184 21.492C57.2824 21.492 56.5624 21.66 56.0584 21.996C55.5784 22.308 55.3384 22.752 55.3384 23.328C55.3384 23.904 55.5544 24.348 55.9864 24.66C56.4184 24.972 56.9824 25.236 57.6784 25.452C58.3984 25.668 59.1424 25.896 59.9104 26.136C60.6784 26.352 61.4104 26.652 62.1064 27.036C62.8024 27.42 63.3664 27.936 63.7984 28.584C64.2544 29.232 64.4824 30.084 64.4824 31.14C64.4824 32.748 63.9064 34.02 62.7544 34.956C61.6264 35.892 60.1024 36.36 58.1824 36.36ZM75.3816 36.36C73.8216 36.36 72.4056 35.976 71.1336 35.208C69.8616 34.416 68.8536 33.348 68.1096 32.004C67.3896 30.66 67.0296 29.148 67.0296 27.468C67.0296 25.788 67.3896 24.276 68.1096 22.932C68.8536 21.588 69.8496 20.52 71.0976 19.728C72.3696 18.936 73.7976 18.54 75.3816 18.54C76.6776 18.54 77.8296 18.816 78.8376 19.368C79.8696 19.896 80.6976 20.64 81.3216 21.6C81.9456 22.536 82.2936 23.628 82.3656 24.876V30.024C82.2936 31.248 81.9456 32.34 81.3216 33.3C80.7216 34.26 79.9056 35.016 78.8736 35.568C77.8656 36.096 76.7016 36.36 75.3816 36.36ZM75.9216 33.3C77.5296 33.3 78.8256 32.76 79.8096 31.68C80.7936 30.576 81.2856 29.172 81.2856 27.468C81.2856 26.292 81.0576 25.272 80.6016 24.408C80.1696 23.52 79.5456 22.836 78.7296 22.356C77.9136 21.852 76.9656 21.6 75.8856 21.6C74.8056 21.6 73.8456 21.852 73.0056 22.356C72.1896 22.86 71.5416 23.556 71.0616 24.444C70.6056 25.308 70.3776 26.304 70.3776 27.432C70.3776 28.584 70.6056 29.604 71.0616 30.492C71.5416 31.356 72.2016 32.04 73.0416 32.544C73.8816 33.048 74.8416 33.3 75.9216 33.3ZM81.0696 36V31.392L81.6816 27.216L81.0696 23.076V18.9H84.3456V36H81.0696ZM96.1548 43.524C94.4028 43.524 92.8428 43.2 91.4748 42.552C90.1308 41.904 89.0508 40.992 88.2348 39.816L90.3228 37.692C91.0188 38.58 91.8468 39.252 92.8068 39.708C93.7668 40.188 94.9068 40.428 96.2268 40.428C97.9788 40.428 99.3588 39.96 100.367 39.024C101.399 38.112 101.915 36.876 101.915 35.316V31.068L102.491 27.216L101.915 23.4V18.9H105.155V35.316C105.155 36.948 104.771 38.376 104.003 39.6C103.259 40.824 102.203 41.784 100.835 42.48C99.4908 43.176 97.9308 43.524 96.1548 43.524ZM96.1548 35.712C94.5948 35.712 93.1908 35.34 91.9428 34.596C90.7188 33.852 89.7468 32.832 89.0268 31.536C88.3068 30.216 87.9468 28.74 87.9468 27.108C87.9468 25.476 88.3068 24.024 89.0268 22.752C89.7468 21.456 90.7188 20.436 91.9428 19.692C93.1908 18.924 94.5948 18.54 96.1548 18.54C97.4988 18.54 98.6868 18.804 99.7188 19.332C100.751 19.86 101.567 20.604 102.167 21.564C102.791 22.5 103.127 23.604 103.175 24.876V29.412C103.103 30.66 102.755 31.764 102.131 32.724C101.531 33.66 100.715 34.392 99.6828 34.92C98.6508 35.448 97.4748 35.712 96.1548 35.712ZM96.8028 32.652C97.8588 32.652 98.7828 32.424 99.5748 31.968C100.391 31.512 101.015 30.876 101.447 30.06C101.879 29.22 102.095 28.248 102.095 27.144C102.095 26.04 101.867 25.08 101.411 24.264C100.979 23.424 100.367 22.776 99.5748 22.32C98.7828 21.84 97.8468 21.6 96.7668 21.6C95.6868 21.6 94.7388 21.84 93.9228 22.32C93.1068 22.776 92.4588 23.424 91.9788 24.264C91.5228 25.08 91.2948 26.028 91.2948 27.108C91.2948 28.188 91.5228 29.148 91.9788 29.988C92.4588 30.828 93.1068 31.488 93.9228 31.968C94.7628 32.424 95.7228 32.652 96.8028 32.652ZM109.946 36V18.9H113.186V36H109.946ZM111.566 15.48C110.966 15.48 110.474 15.288 110.09 14.904C109.706 14.496 109.514 13.992 109.514 13.392C109.514 12.816 109.706 12.336 110.09 11.952C110.474 11.544 110.966 11.34 111.566 11.34C112.166 11.34 112.658 11.544 113.042 11.952C113.426 12.336 113.618 12.816 113.618 13.392C113.618 13.992 113.426 14.496 113.042 14.904C112.658 15.288 112.166 15.48 111.566 15.48ZM120.589 36V11.736H123.829V36H120.589ZM116.377 21.852V18.9H138.229V21.852H116.377ZM130.777 36V11.736H134.017V36H130.777ZM148.155 36.36C146.595 36.36 145.179 35.976 143.907 35.208C142.635 34.416 141.627 33.348 140.883 32.004C140.163 30.66 139.803 29.148 139.803 27.468C139.803 25.788 140.163 24.276 140.883 22.932C141.627 21.588 142.623 20.52 143.871 19.728C145.143 18.936 146.571 18.54 148.155 18.54C149.451 18.54 150.603 18.816 151.611 19.368C152.643 19.896 153.471 20.64 154.095 21.6C154.719 22.536 155.067 23.628 155.139 24.876V30.024C155.067 31.248 154.719 32.34 154.095 33.3C153.495 34.26 152.679 35.016 151.647 35.568C150.639 36.096 149.475 36.36 148.155 36.36ZM148.695 33.3C150.303 33.3 151.599 32.76 152.583 31.68C153.567 30.576 154.059 29.172 154.059 27.468C154.059 26.292 153.831 25.272 153.375 24.408C152.943 23.52 152.319 22.836 151.503 22.356C150.687 21.852 149.739 21.6 148.659 21.6C147.579 21.6 146.619 21.852 145.779 22.356C144.963 22.86 144.315 23.556 143.835 24.444C143.379 25.308 143.151 26.304 143.151 27.432C143.151 28.584 143.379 29.604 143.835 30.492C144.315 31.356 144.975 32.04 145.815 32.544C146.655 33.048 147.615 33.3 148.695 33.3ZM153.843 36V31.392L154.455 27.216L153.843 23.076V18.9H157.119V36H153.843ZM161.836 36V18.9H165.076V36H161.836ZM165.076 26.244L163.852 25.704C163.852 23.52 164.356 21.78 165.364 20.484C166.372 19.188 167.824 18.54 169.72 18.54C170.584 18.54 171.364 18.696 172.06 19.008C172.756 19.296 173.404 19.788 174.004 20.484L171.88 22.68C171.52 22.296 171.124 22.02 170.692 21.852C170.26 21.684 169.756 21.6 169.18 21.6C167.98 21.6 166.996 21.984 166.228 22.752C165.46 23.52 165.076 24.684 165.076 26.244ZM176.321 36V18.9H179.561V36H176.321ZM177.941 15.48C177.341 15.48 176.849 15.288 176.465 14.904C176.081 14.496 175.889 13.992 175.889 13.392C175.889 12.816 176.081 12.336 176.465 11.952C176.849 11.544 177.341 11.34 177.941 11.34C178.541 11.34 179.033 11.544 179.417 11.952C179.801 12.336 179.993 12.816 179.993 13.392C179.993 13.992 179.801 14.496 179.417 14.904C179.033 15.288 178.541 15.48 177.941 15.48Z" fill="white"/>
<circle cx="178.13" cy="12.6759" r="3.42593" fill="#F82670"/>
<path d="M0.116477 27.8446L14.9132 27.8446L14.9132 33.3039H0.0889028C0.088909 32.2659 -0.11654 29.0749 0.116477 27.8446Z" fill="white"/>
<path d="M38.281 28.2291L23.3795 28.2291V33.6884L38.0209 33.6884C38.3338 32.6888 38.4375 29.1133 38.281 28.2291Z" fill="white"/>
<path fill-rule="evenodd" clip-rule="evenodd" d="M19.0299 38.225C23.5341 38.225 27.1855 34.6103 27.1855 30.1514C27.1855 25.6924 23.5341 22.0778 19.0299 22.0778C14.5256 22.0778 10.8742 25.6924 10.8742 30.1514C10.8742 34.6103 14.5256 38.225 19.0299 38.225ZM19.0299 33.9959C21.1748 33.9959 22.9135 32.2747 22.9135 30.1514C22.9135 28.0281 21.1748 26.3068 19.0299 26.3068C16.885 26.3068 15.1463 28.0281 15.1463 30.1514C15.1463 32.2747 16.885 33.9959 19.0299 33.9959Z" fill="white"/>
<rect x="11.1849" y="49.4535" width="5.59244" height="5.53618" transform="rotate(180 11.1849 49.4535)" fill="white"/>
<rect x="5.59241" y="49.4535" width="5.59244" height="5.53618" transform="rotate(180 5.59241 49.4535)" fill="white"/>
<rect x="5.59241" y="43.9942" width="5.59244" height="5.53618" transform="rotate(180 5.59241 43.9942)" fill="white"/>
<rect x="27.1855" y="11.1608" width="5.59244" height="5.53618" fill="#F82670"/>
<rect x="32.778" y="11.1608" width="5.59244" height="5.53618" fill="#F82670"/>
<rect x="32.778" y="16.6969" width="5.59244" height="5.53618" fill="#F82670"/>
<path d="M1.69224e-05 29.8438C1.71409e-05 27.3699 0.492239 24.9203 1.44858 22.6347C2.40492 20.3491 3.80664 18.2724 5.57373 16.5231C7.34081 14.7738 9.43865 13.3861 11.7475 12.4394C14.0563 11.4927 16.5308 11.0054 19.0299 11.0054L19.0299 16.6363C17.2778 16.6363 15.5429 16.9779 13.9242 17.6416C12.3055 18.3054 10.8347 19.2782 9.59579 20.5047C8.3569 21.7311 7.37415 23.1871 6.70366 24.7895C6.03317 26.3919 5.68808 28.1094 5.68808 29.8438L1.69224e-05 29.8438Z" fill="white"/>
<path d="M38.2927 30.6166C38.2927 33.0905 37.8005 35.5402 36.8441 37.8258C35.8878 40.1114 34.4861 42.1881 32.719 43.9374C30.9519 45.6867 28.8541 47.0743 26.5453 48.021C24.2365 48.9678 21.7619 49.455 19.2629 49.455L19.2629 43.8242C21.0149 43.8242 22.7498 43.4826 24.3685 42.8188C25.9872 42.1551 27.458 41.1822 28.6969 39.9558C29.9358 38.7294 30.9186 37.2734 31.5891 35.671C32.2596 34.0685 32.6046 32.3511 32.6046 30.6166L38.2927 30.6166Z" fill="white"/>
</svg>
